<svg xmlns="http://www.w3.org/2000/svg" version="1.1" xmlns:xlink="http://www.w3.org/1999/xlink" xmlns:svgjs="http://svgjs.com/svgjs" width="2000" height="600" preserveAspectRatio="none" viewBox="0 0 2000 600"><g mask="url(&quot;#SvgjsMask1012&quot;)" fill="none"><rect width="2000" height="600" x="0" y="0" fill="rgba(16, 19, 19, 1)"></rect><path d="M2000 0L1230.8 0L2000 74.43z" fill="rgba(255, 255, 255, .1)"></path><path d="M1230.8 0L2000 74.43L2000 302.6L560.99 0z" fill="rgba(255, 255, 255, .075)"></path><path d="M560.99 0L2000 302.6L2000 377.01L334.55 0z" fill="rgba(255, 255, 255, .05)"></path><path d="M334.54999999999995 0L2000 377.01L2000 458.81L147.99999999999994 0z" fill="rgba(255, 255, 255, .025)"></path><path d="M0 600L465.57 600L0 391.22z" fill="rgba(0, 0, 0, .1)"></path><path d="M0 391.22L465.57 600L531 600L0 176.87000000000003z" fill="rgba(0, 0, 0, .075)"></path><path d="M0 176.87L531 600L1209.4099999999999 600L0 75.12z" fill="rgba(0, 0, 0, .05)"></path><path d="M0 75.12L1209.4099999999999 600L1746.2199999999998 600L0 48.78z" fill="rgba(0, 0, 0, .025)"></path></g><defs><mask id="SvgjsMask1012"><rect width="2000" height="600" fill="#ffffff"></rect></mask></defs></svg>